<mxfile host="Electron" agent="Mozilla/5.0 (Windows NT 10.0; Win64; x64) AppleWebKit/537.36 (KHTML, like Gecko) draw.io/26.0.15 Chrome/132.0.6834.196 Electron/34.2.0 Safari/537.36" version="26.0.15">
  <diagram name="Página-1" id="WyTXMHO4YzNJr0QOF3uQ">
    <mxGraphModel dx="880" dy="524" grid="1" gridSize="10" guides="1" tooltips="1" connect="1" arrows="1" fold="1" page="1" pageScale="1" pageWidth="827" pageHeight="1169" math="0" shadow="0">
      <root>
        <mxCell id="0" />
        <mxCell id="1" parent="0" />
        <mxCell id="-xj54I1xTI2CVA90N7qL-1" value="Sistema&amp;nbsp;" style="rounded=0;whiteSpace=wrap;html=1;" vertex="1" parent="1">
          <mxGeometry x="60" y="60" width="120" height="60" as="geometry" />
        </mxCell>
        <mxCell id="-xj54I1xTI2CVA90N7qL-18" style="edgeStyle=orthogonalEdgeStyle;rounded=0;orthogonalLoop=1;jettySize=auto;html=1;exitX=0.5;exitY=0;exitDx=0;exitDy=0;exitPerimeter=0;entryX=0.5;entryY=1;entryDx=0;entryDy=0;" edge="1" parent="1" source="-xj54I1xTI2CVA90N7qL-12" target="-xj54I1xTI2CVA90N7qL-1">
          <mxGeometry relative="1" as="geometry" />
        </mxCell>
        <mxCell id="-xj54I1xTI2CVA90N7qL-19" style="edgeStyle=orthogonalEdgeStyle;rounded=0;orthogonalLoop=1;jettySize=auto;html=1;entryX=0;entryY=0.5;entryDx=0;entryDy=0;" edge="1" parent="1" source="-xj54I1xTI2CVA90N7qL-12" target="-xj54I1xTI2CVA90N7qL-13">
          <mxGeometry relative="1" as="geometry" />
        </mxCell>
        <mxCell id="-xj54I1xTI2CVA90N7qL-21" style="edgeStyle=orthogonalEdgeStyle;rounded=0;orthogonalLoop=1;jettySize=auto;html=1;exitX=0.5;exitY=0.5;exitDx=0;exitDy=0;exitPerimeter=0;entryX=0;entryY=0.5;entryDx=0;entryDy=0;" edge="1" parent="1" source="-xj54I1xTI2CVA90N7qL-12" target="-xj54I1xTI2CVA90N7qL-16">
          <mxGeometry relative="1" as="geometry" />
        </mxCell>
        <mxCell id="-xj54I1xTI2CVA90N7qL-22" style="edgeStyle=orthogonalEdgeStyle;rounded=0;orthogonalLoop=1;jettySize=auto;html=1;exitX=0.5;exitY=0.5;exitDx=0;exitDy=0;exitPerimeter=0;entryX=0;entryY=0.5;entryDx=0;entryDy=0;" edge="1" parent="1" source="-xj54I1xTI2CVA90N7qL-12" target="-xj54I1xTI2CVA90N7qL-14">
          <mxGeometry relative="1" as="geometry" />
        </mxCell>
        <mxCell id="-xj54I1xTI2CVA90N7qL-23" style="edgeStyle=orthogonalEdgeStyle;rounded=0;orthogonalLoop=1;jettySize=auto;html=1;exitX=0.5;exitY=0.5;exitDx=0;exitDy=0;exitPerimeter=0;" edge="1" parent="1" source="-xj54I1xTI2CVA90N7qL-12" target="-xj54I1xTI2CVA90N7qL-15">
          <mxGeometry relative="1" as="geometry" />
        </mxCell>
        <mxCell id="-xj54I1xTI2CVA90N7qL-12" value="Usuario&amp;nbsp;&lt;div&gt;(Admin/Vendedor)&lt;/div&gt;" style="shape=umlActor;verticalLabelPosition=bottom;verticalAlign=top;html=1;outlineConnect=0;" vertex="1" parent="1">
          <mxGeometry x="90" y="180" width="60" height="110" as="geometry" />
        </mxCell>
        <mxCell id="-xj54I1xTI2CVA90N7qL-29" style="edgeStyle=orthogonalEdgeStyle;rounded=0;orthogonalLoop=1;jettySize=auto;html=1;exitX=1;exitY=0.5;exitDx=0;exitDy=0;entryX=0;entryY=0.5;entryDx=0;entryDy=0;" edge="1" parent="1" source="-xj54I1xTI2CVA90N7qL-13" target="-xj54I1xTI2CVA90N7qL-24">
          <mxGeometry relative="1" as="geometry" />
        </mxCell>
        <mxCell id="-xj54I1xTI2CVA90N7qL-13" value="Registrar" style="ellipse;whiteSpace=wrap;html=1;" vertex="1" parent="1">
          <mxGeometry x="240" y="120" width="90" height="40" as="geometry" />
        </mxCell>
        <mxCell id="-xj54I1xTI2CVA90N7qL-30" style="edgeStyle=orthogonalEdgeStyle;rounded=0;orthogonalLoop=1;jettySize=auto;html=1;exitX=1;exitY=0.5;exitDx=0;exitDy=0;entryX=0;entryY=0.5;entryDx=0;entryDy=0;" edge="1" parent="1" source="-xj54I1xTI2CVA90N7qL-14" target="-xj54I1xTI2CVA90N7qL-26">
          <mxGeometry relative="1" as="geometry" />
        </mxCell>
        <mxCell id="-xj54I1xTI2CVA90N7qL-14" value="Modificar" style="ellipse;whiteSpace=wrap;html=1;" vertex="1" parent="1">
          <mxGeometry x="240" y="180" width="90" height="40" as="geometry" />
        </mxCell>
        <mxCell id="-xj54I1xTI2CVA90N7qL-31" style="edgeStyle=orthogonalEdgeStyle;rounded=0;orthogonalLoop=1;jettySize=auto;html=1;exitX=1;exitY=0.5;exitDx=0;exitDy=0;entryX=0;entryY=0.5;entryDx=0;entryDy=0;" edge="1" parent="1" source="-xj54I1xTI2CVA90N7qL-15" target="-xj54I1xTI2CVA90N7qL-27">
          <mxGeometry relative="1" as="geometry" />
        </mxCell>
        <mxCell id="-xj54I1xTI2CVA90N7qL-15" value="Eliminar" style="ellipse;whiteSpace=wrap;html=1;" vertex="1" parent="1">
          <mxGeometry x="240" y="240" width="90" height="40" as="geometry" />
        </mxCell>
        <mxCell id="-xj54I1xTI2CVA90N7qL-32" style="edgeStyle=orthogonalEdgeStyle;rounded=0;orthogonalLoop=1;jettySize=auto;html=1;exitX=1;exitY=0.5;exitDx=0;exitDy=0;entryX=0;entryY=0.5;entryDx=0;entryDy=0;" edge="1" parent="1" source="-xj54I1xTI2CVA90N7qL-16" target="-xj54I1xTI2CVA90N7qL-28">
          <mxGeometry relative="1" as="geometry" />
        </mxCell>
        <mxCell id="-xj54I1xTI2CVA90N7qL-16" value="Guardar" style="ellipse;whiteSpace=wrap;html=1;" vertex="1" parent="1">
          <mxGeometry x="240" y="300" width="90" height="40" as="geometry" />
        </mxCell>
        <mxCell id="-xj54I1xTI2CVA90N7qL-24" value="&#xa;El usuario ingresa el nombre, precio y cantidad del producto.&#xa;&#xa;" style="ellipse;whiteSpace=wrap;html=1;" vertex="1" parent="1">
          <mxGeometry x="460" y="40" width="140" height="90" as="geometry" />
        </mxCell>
        <mxCell id="-xj54I1xTI2CVA90N7qL-26" value="&#xa;El usuario edita la información de un producto existente.&#xa;&#xa;" style="ellipse;whiteSpace=wrap;html=1;" vertex="1" parent="1">
          <mxGeometry x="460" y="140" width="140" height="80" as="geometry" />
        </mxCell>
        <mxCell id="-xj54I1xTI2CVA90N7qL-27" value="&lt;br&gt; Se puede eliminar&lt;div&gt;&amp;nbsp;un producto del inventario.&lt;br&gt;&lt;br&gt;&lt;/div&gt;" style="ellipse;whiteSpace=wrap;html=1;" vertex="1" parent="1">
          <mxGeometry x="470" y="230" width="130" height="80" as="geometry" />
        </mxCell>
        <mxCell id="-xj54I1xTI2CVA90N7qL-28" value="Se puede guardar todas las caracteristicas de un producto" style="ellipse;whiteSpace=wrap;html=1;" vertex="1" parent="1">
          <mxGeometry x="470" y="320" width="130" height="80" as="geometry" />
        </mxCell>
      </root>
    </mxGraphModel>
  </diagram>
</mxfile>
